<svg xmlns="http://www.w3.org/2000/svg" version="1.1" xmlns:xlink="http://www.w3.org/1999/xlink" xmlns:svgjs="http://svgjs.dev/svgjs" width="1000" height="1000" viewBox="0 0 1000 1000"><rect width="1000" height="1000" fill="#ffffff"></rect><g transform="matrix(0.7,0,0,0.7,149.57575757575756,441.02088866438737)"><svg viewBox="0 0 396 67" data-background-color="#ece8dd" preserveAspectRatio="xMidYMid meet" height="169" width="1000" xmlns="http://www.w3.org/2000/svg" xmlns:xlink="http://www.w3.org/1999/xlink"><g id="tight-bounds" transform="matrix(1,0,0,1,0.2400000000000091,-0.09678394348225083)"><svg viewBox="0 0 395.52 67.19356788696447" height="67.19356788696447" width="395.52"><g><svg viewBox="0 0 493.72546428982423 83.87736524646378" height="67.19356788696447" width="395.52"><g transform="matrix(1,0,0,1,0,11.592313141877415)"><svg viewBox="0 0 395.52 60.69273896270895" height="60.69273896270895" width="395.52"><g id="textblocktransform"><svg viewBox="0 0 395.52 60.69273896270895" height="60.69273896270895" width="395.52" id="textblock"><g><svg viewBox="0 0 395.52 60.69273896270895" height="60.69273896270895" width="395.52"><g transform="matrix(1,0,0,1,0,0)"><svg width="395.52" viewBox="3.85 -35.15 233.28 35.8" height="60.69273896270895" data-palette-color="#579bb1"><path d="M16.5-34.95L16.5-34.95Q21.05-34.95 23.65-33.98 26.25-33 27.38-30.63 28.5-28.25 28.5-23.9L28.5-23.9Q28.5-19.55 27.43-17.15 26.35-14.75 23.88-13.8 21.4-12.85 17.3-12.85L17.3-12.85Q15.05-12.85 12.98-13 10.9-13.15 9.13-13.4 7.35-13.65 6.1-13.93 4.85-14.2 4.35-14.4L4.35-14.4 4.5-17.75Q7.35-17.75 10.38-17.75 13.4-17.75 16.4-17.75L16.4-17.75Q18.6-17.8 19.88-18.3 21.15-18.8 21.68-20.13 22.2-21.45 22.2-23.9L22.2-23.9Q22.2-26.35 21.68-27.68 21.15-29 19.88-29.53 18.6-30.05 16.4-30.05L16.4-30.05Q12-30.05 8.85-30 5.7-29.95 4.55-29.85L4.55-29.85 3.85-34.5Q5.85-34.7 7.63-34.8 9.4-34.9 11.48-34.93 13.55-34.95 16.5-34.95ZM3.85-34.5L10.1-34.5 10.1 0 3.85 0 3.85-34.5ZM40.95-34.6L40.95-34.6Q43.55-34.6 46.27-34.6 49-34.6 51.65-34.5 54.3-34.4 56.65-34.2L56.65-34.2 56.35-29.55 42.85-29.55Q41.45-29.55 40.77-28.85 40.1-28.15 40.1-26.65L40.1-26.65 40.1-7.85Q40.1-6.35 40.77-5.65 41.45-4.95 42.85-4.95L42.85-4.95 56.35-4.95 56.65-0.3Q54.3-0.1 51.65-0.03 49 0.05 46.27 0.08 43.55 0.1 40.95 0.1L40.95 0.1Q37.75 0.1 35.82-1.68 33.9-3.45 33.85-6.45L33.85-6.45 33.85-28.05Q33.9-31.05 35.82-32.83 37.75-34.6 40.95-34.6ZM34.75-15.75L34.75-20.35 54.45-20.35 54.45-15.75 34.75-15.75ZM84.75-34.5L90.7-34.5 90.7-2.35Q90.7 0 88.4 0L88.4 0 84.15 0Q83.09 0 82.55-0.48 82-0.95 81.55-1.9L81.55-1.9 71.09-22.7Q70.59-23.8 70-25.13 69.4-26.45 69.05-27.65L69.05-27.65 68.4-27.65Q68.5-26.4 68.57-25.13 68.65-23.85 68.65-22.6L68.65-22.6 68.65 0 62.65 0 62.65-32.15Q62.65-34.5 64.95-34.5L64.95-34.5 69.09-34.5Q70.15-34.5 70.7-34.02 71.25-33.55 71.7-32.6L71.7-32.6 81.84-12.35Q82.45-11.25 83.07-9.88 83.7-8.5 84.25-7.1L84.25-7.1 85-7.1Q84.9-8.55 84.82-9.93 84.75-11.3 84.75-12.65L84.75-12.65 84.75-34.5ZM111.04-34.95L111.04-34.95Q115.59-34.95 118.19-33.98 120.79-33 121.92-30.63 123.04-28.25 123.04-23.9L123.04-23.9Q123.04-19.55 121.97-17.15 120.89-14.75 118.42-13.8 115.94-12.85 111.84-12.85L111.84-12.85Q109.59-12.85 107.52-13 105.44-13.15 103.67-13.4 101.89-13.65 100.64-13.93 99.39-14.2 98.89-14.4L98.89-14.4 99.04-17.75Q101.89-17.75 104.92-17.75 107.94-17.75 110.94-17.75L110.94-17.75Q113.14-17.8 114.42-18.3 115.69-18.8 116.22-20.13 116.74-21.45 116.74-23.9L116.74-23.9Q116.74-26.35 116.22-27.68 115.69-29 114.42-29.53 113.14-30.05 110.94-30.05L110.94-30.05Q106.54-30.05 103.39-30 100.24-29.95 99.09-29.85L99.09-29.85 98.39-34.5Q100.39-34.7 102.17-34.8 103.94-34.9 106.02-34.93 108.09-34.95 111.04-34.95ZM98.39-34.5L104.64-34.5 104.64 0 98.39 0 98.39-34.5ZM141.79-35.15L141.79-35.15Q145.79-35.15 148.54-34.27 151.29-33.4 152.97-31.35 154.64-29.3 155.39-25.85 156.14-22.4 156.14-17.25L156.14-17.25Q156.14-12.15 155.39-8.68 154.64-5.2 152.97-3.15 151.29-1.1 148.54-0.23 145.79 0.65 141.79 0.65L141.79 0.65Q137.89 0.65 135.14-0.23 132.39-1.1 130.69-3.15 128.99-5.2 128.24-8.68 127.49-12.15 127.49-17.25L127.49-17.25Q127.49-22.4 128.24-25.85 128.99-29.3 130.69-31.35 132.39-33.4 135.14-34.27 137.89-35.15 141.79-35.15ZM141.79-30.05L141.79-30.05Q138.84-30.05 137.16-28.88 135.49-27.7 134.79-24.93 134.09-22.15 134.09-17.25L134.09-17.25Q134.09-12.35 134.79-9.58 135.49-6.8 137.16-5.63 138.84-4.45 141.79-4.45L141.79-4.45Q144.79-4.45 146.47-5.63 148.14-6.8 148.84-9.58 149.54-12.35 149.54-17.25L149.54-17.25Q149.54-22.15 148.84-24.93 148.14-27.7 146.47-28.88 144.79-30.05 141.79-30.05ZM162.64-34.5L168.89-34.5 168.89 0 162.64 0 162.64-34.5ZM198.69-34.5L204.64-34.5 204.64-2.35Q204.64 0 202.34 0L202.34 0 198.09 0Q197.04 0 196.49-0.48 195.94-0.95 195.49-1.9L195.49-1.9 185.04-22.7Q184.54-23.8 183.94-25.13 183.34-26.45 182.99-27.65L182.99-27.65 182.34-27.65Q182.44-26.4 182.51-25.13 182.59-23.85 182.59-22.6L182.59-22.6 182.59 0 176.59 0 176.59-32.15Q176.59-34.5 178.89-34.5L178.89-34.5 183.04-34.5Q184.09-34.5 184.64-34.02 185.19-33.55 185.64-32.6L185.64-32.6 195.79-12.35Q196.39-11.25 197.01-9.88 197.64-8.5 198.19-7.1L198.19-7.1 198.94-7.1Q198.84-8.55 198.76-9.93 198.69-11.3 198.69-12.65L198.69-12.65 198.69-34.5ZM220.18-34.5L226.43-34.5 226.43 0 220.18 0 220.18-34.5ZM209.48-34.5L237.13-34.5 237.13-29.4 209.48-29.4 209.48-34.5Z" opacity="1" transform="matrix(1,0,0,1,0,0)" fill="#000000" class="wordmark-text-0" data-fill-palette-color="primary" id="text-0"></path></svg></g></svg></g></svg></g></svg></g><g transform="matrix(1,0,0,1,409.84809904336043,0)"><svg viewBox="0 0 83.87736524646378 83.87736524646378" height="83.87736524646378" width="83.87736524646378"><g data-palette-color="#579bb1"><rect width="22.926479834033433" height="83.87736524646378" fill="#000000" stroke="transparent" data-fill-palette-color="accent" x="0" fill-opacity="1"></rect><rect width="22.926479834033433" height="83.87736524646378" fill="#000000" stroke="transparent" data-fill-palette-color="accent" x="27.95912174882126" fill-opacity="0.75"></rect><rect width="22.926479834033433" height="83.87736524646378" fill="#000000" stroke="transparent" data-fill-palette-color="accent" x="55.91824349764252" fill-opacity="0.5"></rect></g></svg></g></svg></g><defs></defs></svg><rect width="395.52" height="67.19356788696447" fill="none" stroke="none" visibility="hidden"></rect></g></svg></g></svg>